<svg version="1" xmlns="http://www.w3.org/2000/svg" width="933.333" height="933.333" viewBox="0 0 700.000000 700.000000"><path d="M254.7 87.6c-.1.1-3.6.5-7.7.8-20 1.8-41.6 8.9-61.5 20.1-18.2 10.3-36.8 27.9-49.3 46.5-8.2 12.3-11.8 19.9-24.7 52.5-4.8 12.1-9.6 23.9-10.6 26.2-1.1 2.3-1.9 4.7-1.9 5.2 0 .6-.3 1.2-.7 1.2-.5.1-19.9.3-43.3.4-46.8.2-45.9.1-51.3 6.5-4.5 5.3-4.5 8.4.7 29.6 7.1 28.8 7.9 29.6 31.6 29.6 8.2 0 15 .2 15 .5s-1.8 2.2-4 4.4c-11.3 11.2-21.4 30.3-23.6 44.6-.3 2.1-.7 4.9-1 6.3-.2 1.4-.4 20.5-.4 42.5-.1 44.3.5 50 5.9 64.1 3.1 8.1 9.3 18.7 13.5 23.2 2.1 2.3 2.1 2.9 2.2 42.5.1 28.2.5 41.5 1.4 44.7 4.5 16.5 17.6 29.1 33.8 32.4 3.6.8 15.5 1.1 32.7 1 25-.1 27.5-.3 33.3-2.3 8.2-2.8 12.6-5.7 18.4-11.8 10.3-11.1 11.8-17.4 11.8-49V525h350v25c0 13.7.1 25.3.1 25.7.6 3 4.3 12.4 6.3 15.7 3.6 6 9.9 11.9 16.4 15.4 10.4 5.5 13 5.8 44.2 5.6 25.8-.1 29-.3 34.1-2.2 14.4-5.2 24.2-15.4 28.4-29.8 1.5-5.1 1.7-11 1.8-45.4v-39.5l5.5-8c8.8-12.8 13.7-25.3 15.7-39.5.6-4.5.6-81-.1-87-1.7-16.9-11.4-36.5-24.6-50.1l-4.5-4.6 15.5-.1c22.5-.1 24.8-1.8 29.7-20.9 1.4-5.9 2.8-11.5 3-12.3.2-.8 1-4.3 1.9-7.6.9-3.4 1.6-7.3 1.6-8.7 0-3.5-2.4-8.8-5.2-11.3-5.2-4.7-4.9-4.7-50.2-4.8l-42.9-.1-6.9-17c-3.8-9.4-7.1-17.7-7.4-18.5-4.3-11.3-11.6-28.5-15.5-36-14.3-27.8-38.1-51.2-66.4-65.3-7.8-3.9-24.2-10.1-29.3-11.2-.9-.2-3.9-.9-6.7-1.5-2.7-.7-6.6-1.4-8.5-1.6-1.9-.2-5.5-.6-8-1-3.7-.6-197.7-1.4-198.3-.8zM452.6 177c15.9 4.1 29.2 13.4 38.5 27 2.2 3.3 7 13.3 10.6 22.3 3.6 8.9 7.1 17.5 7.8 19.2.7 1.6 4.4 10.9 8.2 20.5 5.1 12.8 6.6 17.6 5.7 18-1 .4-344.9.5-347.6.1-.5-.1 8-22.7 11.2-29.6.5-1.1 4.7-11.5 9.3-23 4.5-11.6 10-23.6 12.1-26.8 9.7-14.6 26.5-25.9 42.8-28.6 2.9-.5 47.8-.9 99.8-.9 88.5 0 95 .1 101.6 1.8zM139.9 351.2c5.3 1.5 13.2 5.3 17.8 8.7 2.4 1.7 4.5 3.1 4.8 3.1.3 0 1.9 1.2 3.6 2.7 20.6 18.2 32.6 39 30.5 52.6-1.7 10.6-9.8 16.1-26.6 18.4-10 1.3-44.5.6-51-1.1-19-4.9-30.3-19.2-31.3-39.6-1.1-22 12-40.4 32-44.9 5.1-1.1 15.9-1 20.2.1zm446 1.7c11 4.4 17.5 10.5 22.2 20.8 9.7 21.2 2.4 47.7-15.8 57.5-8.8 4.8-14.4 5.8-34.6 6.1-27.7.5-39.2-1.3-47.4-7.3-5.4-4-7.7-9.7-7-17.3 2.3-22.5 32.7-55 58.2-62 4.3-1.2 19 .1 24.4 2.2z"/></svg>